<svg xmlns="http://www.w3.org/2000/svg" xmlns:xlink="http://www.w3.org/1999/xlink" viewBox="0 0 257.14 144"><defs><style>.cls-1{fill:url(#New_Gradient_Swatch_2);}.cls-2{fill:url(#New_Gradient_Swatch_2-2);}.cls-3{fill:url(#New_Gradient_Swatch_1);}.cls-4{fill:url(#New_Gradient_Swatch_1-2);}.cls-5{fill:#003461;}</style><linearGradient id="New_Gradient_Swatch_2" x1="202.09" y1="12.49" x2="256.54" y2="12.49" gradientUnits="userSpaceOnUse"><stop offset="0" stop-color="#003461"/><stop offset="0.21" stop-color="#20618c"/><stop offset="0.47" stop-color="#4190b9"/><stop offset="0.69" stop-color="#59b2da"/><stop offset="0.88" stop-color="#68c7ef"/><stop offset="1" stop-color="#6dcff6"/></linearGradient><linearGradient id="New_Gradient_Swatch_2-2" x1="243.35" y1="20.19" x2="230.77" y2="38.94" xlink:href="#New_Gradient_Swatch_2"/><linearGradient id="New_Gradient_Swatch_1" x1="215.58" y1="82.28" x2="215.58" y2="10.18" gradientUnits="userSpaceOnUse"><stop offset="0" stop-color="#1c672d"/><stop offset="0.06" stop-color="#296f2c"/><stop offset="0.52" stop-color="#86ab27"/><stop offset="0.85" stop-color="#c0d024"/><stop offset="1" stop-color="#d7df23"/></linearGradient><linearGradient id="New_Gradient_Swatch_1-2" x1="210.19" y1="20.57" x2="183.75" y2="20.57" xlink:href="#New_Gradient_Swatch_1"/></defs><title>Asset 1</title><g id="Layer_2" data-name="Layer 2"><g id="credit"><path class="cls-1" d="M254.81,5.49A12.83,12.83,0,0,0,244.28,0H200.57l-1.39,7.86h22.06a20.14,20.14,0,0,1,2.1.19,12.73,12.73,0,0,1,10.51,12.52H241a10.22,10.22,0,0,1,6.18,2.08,10.39,10.39,0,0,1,2.06,2.08l.09.12.09.12,2.26-1.58A12.86,12.86,0,0,0,254.81,5.49Z"/><path class="cls-2" d="M248,23.41A10.35,10.35,0,0,0,246.17,22,10.19,10.19,0,0,0,241,20.57h-7.11a12.7,12.7,0,0,1-.19,2.21L231,37.85l1.55-1.09L249.39,25l-.09-.12-.09-.12A10.43,10.43,0,0,0,248,23.41Z"/><path class="cls-3" d="M231.27,22.36h0a10.29,10.29,0,0,0-8.34-11.92c-.6-.11-1.79-.16-1.79-.16H203.32a7.67,7.67,0,0,1,7.61,8.94c0,.14,0,.29-.08.43l-2,11.21-9.14,51.43L223.57,65.6Z"/><path class="cls-4" d="M203.32,10.29H188.77l-3.63,20.57h23.74l2-11.21c0-.14.05-.28.08-.43a7.67,7.67,0,0,0-7.61-8.94Z"/><polygon class="cls-5" points="34.73 56.35 24.3 56.35 17.95 92.57 3.95 92.57 10.3 56.35 0 56.35 0.98 51.43 35.64 51.43 34.73 56.35"/><polygon class="cls-5" points="68.22 92.57 54.22 92.57 57.42 74.23 49.45 74.23 46.25 92.57 32.26 92.57 39.46 51.43 53.52 51.43 50.37 69.31 58.27 69.31 61.42 51.43 75.55 51.43 68.22 92.57"/><polygon class="cls-5" points="89.4 92.57 75.41 92.57 82.61 51.43 96.67 51.43 89.4 92.57"/><polygon class="cls-5" points="131.06 92.57 115.9 92.57 107.59 62.83 102.36 92.57 96.53 92.57 103.73 51.43 119.21 51.43 127.15 81.56 132.43 51.43 138.39 51.43 131.06 92.57"/><polygon class="cls-5" points="174.21 92.57 160.21 92.57 163.41 74.23 155.44 74.23 152.24 92.57 138.25 92.57 145.45 51.43 159.51 51.43 156.36 69.31 164.26 69.31 167.41 51.43 181.54 51.43 174.21 92.57"/><path class="cls-5" d="M32.32,130.39,29.92,144h-14l7.2-41.14h15a53.61,53.61,0,0,1,6.75.39,15.77,15.77,0,0,1,5.3,1.55,8.87,8.87,0,0,1,3.56,3.34,12,12,0,0,1,1.45,5.8,18.63,18.63,0,0,1-.83,6.38,12.57,12.57,0,0,1-3.24,5.25,15.92,15.92,0,0,1-6,3.53,27.76,27.76,0,0,1-9.09,1.3Zm3.73-4.15a3.91,3.91,0,0,0,3.21-1.62,13.2,13.2,0,0,0,2.05-4,23.87,23.87,0,0,0,1.08-4.86,29.42,29.42,0,0,0,.22-4.41,6.86,6.86,0,0,0-.69-2.95,2.62,2.62,0,0,0-2.57-1.2H36.45l-3.37,19Z"/><polygon class="cls-5" points="90.76 144 76.76 144 79.96 125.66 71.99 125.66 68.79 144 54.8 144 62 102.86 76.06 102.86 72.91 120.74 80.81 120.74 83.97 102.86 98.09 102.86 90.76 144"/><path class="cls-5" d="M133.84,144H118.68l-1.29-10.3h-12L101.19,144H94.9l17.57-41.14h15.35Zm-26.48-15h9.39l-2.15-17.62Z"/><polygon class="cls-5" points="171.61 107.78 161.18 107.78 154.83 144 140.84 144 147.19 107.78 136.89 107.78 137.87 102.86 172.53 102.86 171.61 107.78"/></g></g></svg>